<svg xmlns="http://www.w3.org/2000/svg" viewBox="0 0 1600 500" role="img" aria-label="Panel placeholder: ILLUSTRATIONS">
  <rect width="1600" height="500" fill="#cdc9c0"/>
  <g stroke="#1b1313" stroke-opacity="0.06" stroke-width="1">
    <line x1="80" y1="0" x2="80" y2="500"/>
<line x1="160" y1="0" x2="160" y2="500"/>
<line x1="240" y1="0" x2="240" y2="500"/>
<line x1="320" y1="0" x2="320" y2="500"/>
<line x1="400" y1="0" x2="400" y2="500"/>
<line x1="480" y1="0" x2="480" y2="500"/>
<line x1="560" y1="0" x2="560" y2="500"/>
<line x1="640" y1="0" x2="640" y2="500"/>
<line x1="720" y1="0" x2="720" y2="500"/>
<line x1="800" y1="0" x2="800" y2="500"/>
<line x1="880" y1="0" x2="880" y2="500"/>
<line x1="960" y1="0" x2="960" y2="500"/>
<line x1="1040" y1="0" x2="1040" y2="500"/>
<line x1="1120" y1="0" x2="1120" y2="500"/>
<line x1="1200" y1="0" x2="1200" y2="500"/>
<line x1="1280" y1="0" x2="1280" y2="500"/>
<line x1="1360" y1="0" x2="1360" y2="500"/>
<line x1="1440" y1="0" x2="1440" y2="500"/>
<line x1="1520" y1="0" x2="1520" y2="500"/>
    <line x1="0" y1="80" x2="1600" y2="80"/>
<line x1="0" y1="160" x2="1600" y2="160"/>
<line x1="0" y1="240" x2="1600" y2="240"/>
<line x1="0" y1="320" x2="1600" y2="320"/>
<line x1="0" y1="400" x2="1600" y2="400"/>
<line x1="0" y1="480" x2="1600" y2="480"/>
  </g>
  <g fill="none" stroke="#7a1f1a" stroke-width="1.4" stroke-opacity="0.4">
    <ellipse cx="800" cy="250" rx="560" ry="180" stroke-dasharray="3 10"/>
    <ellipse cx="800" cy="250" rx="260" ry="86"/>
    <path d="M800 40v44 M800 416v44 M180 250h44 M1376 250h44" stroke="#a3261d" stroke-opacity="0.6"/>
  </g>
  <text x="800" y="468" text-anchor="middle" fill="#99908a" font-family="monospace" font-size="22" letter-spacing="8">ILLUSTRATIONS · ULTRA-WIDE · REPLACE ME</text>
</svg>
